<?xml version="1.0" encoding="UTF-8"?>
<svg width="14px" height="16px" viewBox="0 0 14 16" version="1.1" xmlns="http://www.w3.org/2000/svg" xmlns:xlink="http://www.w3.org/1999/xlink">
    <!-- Generator: Sketch 52.5 (67469) - http://www.bohemiancoding.com/sketch -->
    <title>24px (20)</title>
    <desc>Created with Sketch.</desc>
    <g id="Zepel-2.0-website" stroke="none" stroke-width="1" fill="none" fill-rule="evenodd">
        <g id="Artboard" transform="translate(-672.000000, -192.000000)">
            <g id="24px-(20)" transform="translate(667.000000, 188.000000)">
                <polygon id="Path" points="0 0 24 0 24 24 0 24"></polygon>
                <polygon id="Path" fill="#CECED7" opacity="0.3" points="9.83 12 11 12 11 18 13 18 13 12 14.17 12 12 9.83"></polygon>
                <path d="M5,4 L19,4 L19,6 L5,6 L5,4 Z M12,7 L5,14 L9,14 L9,20 L15,20 L15,14 L19,14 L12,7 Z M13,12 L13,18 L11,18 L11,12 L9.83,12 L12,9.83 L14.17,12 L13,12 Z" id="Shape" fill="#5D5C78" fill-rule="nonzero"></path>
            </g>
        </g>
    </g>
</svg>