<?xml version="1.0" encoding="UTF-8"?>
<svg width="20px" height="17px" viewBox="0 0 20 17" version="1.1" xmlns="http://www.w3.org/2000/svg" xmlns:xlink="http://www.w3.org/1999/xlink">
    <!-- Generator: Sketch 52.5 (67469) - http://www.bohemiancoding.com/sketch -->
    <title>twotone-home-24px</title>
    <desc>Created with Sketch.</desc>
    <g id="Symbols" stroke="none" stroke-width="1" fill="none" fill-rule="evenodd">
        <g id="Artboard" transform="translate(-1926.000000, -820.000000)">
            <g id="twotone-home-24px" transform="translate(1924.000000, 817.000000)">
                <polygon id="Path" points="0 0 24 0 24 24 0 24"></polygon>
                <path d="M12,3 L2,12 L5,12 L5,20 L11,20 L11,14 L13,14 L13,20 L19,20 L19,12 L22,12 L12,3 Z M17,18 L15,18 L15,12 L9,12 L9,18 L7,18 L7,10.19 L12,5.69 L17,10.19 L17,18 Z" id="Shape" fill="#5D5D78" fill-rule="nonzero"></path>
                <polygon id="Path" fill="#5D5D78" opacity="0.3" points="7 10.19 7 18 9 18 9 12 15 12 15 18 17 18 17 10.19 12 5.69"></polygon>
            </g>
        </g>
    </g>
</svg>