<?xml version="1.0" encoding="UTF-8"?>
<svg width="18px" height="18px" viewBox="0 0 18 18" version="1.1" xmlns="http://www.w3.org/2000/svg" xmlns:xlink="http://www.w3.org/1999/xlink">
    <!-- Generator: Sketch 52.5 (67469) - http://www.bohemiancoding.com/sketch -->
    <title>twotone-assessment-24px</title>
    <desc>Created with Sketch.</desc>
    <g id="Symbols" stroke="none" stroke-width="1" fill="none" fill-rule="evenodd">
        <g id="Artboard" transform="translate(-1961.000000, -677.000000)">
            <g id="twotone-assessment-24px" transform="translate(1958.000000, 674.000000)">
                <polygon id="Path" points="0 0 24 0 24 24 0 24"></polygon>
                <path d="M5,5 L5,19 L19,19 L19,5 L5,5 Z M9,17 L7,17 L7,10 L9,10 L9,17 Z M13,17 L11,17 L11,7 L13,7 L13,17 Z M17,17 L15,17 L15,13 L17,13 L17,17 Z" id="Shape" fill="#5D5D78" fill-rule="nonzero" opacity="0.3"></path>
                <path d="M19,3 L5,3 C3.9,3 3,3.9 3,5 L3,19 C3,20.1 3.9,21 5,21 L19,21 C20.1,21 21,20.1 21,19 L21,5 C21,3.9 20.1,3 19,3 Z M19,19 L5,19 L5,5 L19,5 L19,19 Z M7,10 L9,10 L9,17 L7,17 L7,10 Z M11,7 L13,7 L13,17 L11,17 L11,7 Z M15,13 L17,13 L17,17 L15,17 L15,13 Z" id="Shape" fill="#5D5D78" fill-rule="nonzero"></path>
            </g>
        </g>
    </g>
</svg>