<?xml version="1.0" encoding="UTF-8"?>
<svg width="23px" height="21px" viewBox="0 0 23 21" version="1.1" xmlns="http://www.w3.org/2000/svg" xmlns:xlink="http://www.w3.org/1999/xlink">
    <!-- Generator: Sketch 52.5 (67469) - http://www.bohemiancoding.com/sketch -->
    <title>Sprint</title>
    <desc>Created with Sketch.</desc>
    <g id="Symbols" stroke="none" stroke-width="1" fill="none" fill-rule="evenodd">
        <g id="Artboard" transform="translate(-1989.000000, -676.000000)" fill="#5D5D78" fill-rule="nonzero">
            <g id="Sprint" transform="translate(1988.000000, 676.000000)">
                <path d="M19.7632712,16.4583333 L19.7632712,14.8333333 L23.5294118,17.5416666 L19.7632712,20.25 L19.7632712,18.885 L15.8299718,18.885 C16.2827607,18.5592667 16.693139,18.2458927 17.0611066,17.944878 C17.4290743,17.6438632 17.8165463,17.1483483 18.2235226,16.4583333 L19.7632712,16.4583333 Z M12.23099,4.6391667 L12.23099,6.16666665 L8.46484935,3.4583334 L12.23099,0.75 L12.23099,2.37499995 C15.9433285,3.33916665 18.687231,6.7191666 18.687231,10.76 C18.687231,14.5261654 16.6391081,17.7182822 13.3094603,18.9154531 C13.0666279,19.0027633 1.90352356,18.8499158 1.6511845,18.9154531 C1.6511845,18.7790826 2.50987325,18.1768065 2.50987325,18.0833334 C2.50987325,17.9959495 1.6511845,17.2244757 1.6511845,17.1024033 C1.88061946,17.0211106 12.6529485,17.115438 12.8696559,17.0095818 C15.0210406,15.9586832 16.5351506,13.3287516 16.5351506,10.76 C16.5351506,7.93249995 14.7381635,5.5275 12.23099,4.6391667 Z M3.62266857,10.76 C3.62266857,12.438724 4.19600072,14.163745 5.24457706,15.4369314 C5.54878465,15.8063017 5.30926825,15.5530584 4.69870875,15.6744205 C4.41005478,15.7317967 4.26422649,15.817711 3.99378728,15.8021926 C3.79087824,15.7905492 3.18718597,15.9616485 2.98987881,15.6744205 C2.03175478,14.2796407 1.47058824,12.5873952 1.47058824,10.76 C1.47058824,6.7191666 4.21449068,3.33916665 7.92682926,2.37499995 C7.92682926,2.5238586 6.93736735,3.5819871 6.93736735,3.7894149 C6.93736735,4.01653875 7.92682926,4.34182275 7.92682926,4.6391667 C5.41965566,5.5275 3.62266857,7.93249995 3.62266857,10.76 Z" id="Combined-Shape"></path>
            </g>
        </g>
    </g>
</svg>