<svg width="25" height="25" viewBox="0 0 25 25" fill="none" xmlns="http://www.w3.org/2000/svg">
<circle cx="9.38699" cy="9.44168" r="2.27371" fill="#BDBDC5"/>
<path d="M15.8683 19.4541C15.8683 20.4985 10.6444 20.1802 9.38865 20.1802C8.13292 20.1802 2.96484 20.4985 2.96484 19.4541C2.96484 18.4098 8.13292 17.3086 9.38865 17.3086C10.6444 17.3086 15.8683 18.4098 15.8683 19.4541Z" fill="#BDBDC5"/>
<path d="M9.5 13.5C11.71 13.5 13.5 11.71 13.5 9.5C13.5 7.29 11.71 5.5 9.5 5.5C7.29 5.5 5.5 7.29 5.5 9.5C5.5 11.71 7.29 13.5 9.5 13.5ZM9.5 7.5C10.6 7.5 11.5 8.4 11.5 9.5C11.5 10.6 10.6 11.5 9.5 11.5C8.4 11.5 7.5 10.6 7.5 9.5C7.5 8.4 8.4 7.5 9.5 7.5ZM9.5 15.5C6.83 15.5 1.5 16.84 1.5 19.5V21.5H17.5V19.5C17.5 16.84 12.17 15.5 9.5 15.5ZM3.5 19.5C3.72 18.78 6.81 17.5 9.5 17.5C12.2 17.5 15.3 18.79 15.5 19.5H3.5ZM15.58 7.55C16.42 8.73 16.42 10.26 15.58 11.44L17.26 13.13C19.28 11.11 19.28 8.06 17.26 5.86L15.58 7.55V7.55ZM20.57 2.5L18.94 4.13C21.71 7.15 21.71 11.69 18.94 14.87L20.57 16.5C24.47 12.61 24.48 6.55 20.57 2.5Z" fill="#5D5D78"/>
</svg>
