<?xml version="1.0" encoding="UTF-8"?>
<svg width="18px" height="12px" viewBox="0 0 18 12" version="1.1" xmlns="http://www.w3.org/2000/svg" xmlns:xlink="http://www.w3.org/1999/xlink">
    <!-- Generator: Sketch 56.3 (81716) - https://sketch.com -->
    <title>Untitled</title>
    <desc>Created with Sketch.</desc>
    <g id="Page-1" stroke="none" stroke-width="1" fill="none" fill-rule="evenodd">
        <g id="videos" fill-rule="nonzero">
            <polygon id="Path" fill="#C7C6D1" opacity="0.3" points="2 2 12 2 12 10 2 10"></polygon>
            <path d="M14,1 C14,0.45 13.55,0 13,0 L1,0 C0.45,0 0,0.45 0,1 L0,11 C0,11.55 0.45,12 1,12 L13,12 C13.55,12 14,11.55 14,11 L14,7.5 L18,11.5 L18,0.5 L14,4.5 L14,1 Z M12,10 L2,10 L2,2 L12,2 L12,10 Z" id="Shape" fill="#5D5E76"></path>
        </g>
    </g>
</svg>