<?xml version="1.0" encoding="UTF-8"?>
<svg width="22px" height="20px" viewBox="0 0 22 20" version="1.1" xmlns="http://www.w3.org/2000/svg" xmlns:xlink="http://www.w3.org/1999/xlink">
    <!-- Generator: Sketch 52.5 (67469) - http://www.bohemiancoding.com/sketch -->
    <title>twotone-desktop_windows-24px (1)</title>
    <desc>Created with Sketch.</desc>
    <g id="Symbols" stroke="none" stroke-width="1" fill="none" fill-rule="evenodd">
        <g id="Artboard" transform="translate(-1775.000000, -735.000000)">
            <g id="twotone-desktop_windows-24px-(1)" transform="translate(1774.000000, 733.000000)">
                <polygon id="Path" points="0 0 24 0 24 24 0 24"></polygon>
                <polygon id="Path" fill="#5D5D78" opacity="0.3" points="3 4 21 4 21 16 3 16"></polygon>
                <path d="M21,2 L3,2 C1.9,2 1,2.9 1,4 L1,16 C1,17.1 1.9,18 3,18 L10,18 L10,20 L8,20 L8,22 L16,22 L16,20 L14,20 L14,18 L21,18 C22.1,18 23,17.1 23,16 L23,4 C23,2.9 22.1,2 21,2 Z M21,16 L3,16 L3,4 L21,4 L21,16 Z" id="Shape" fill="#5D5D78" fill-rule="nonzero"></path>
            </g>
        </g>
    </g>
</svg>