<?xml version="1.0" encoding="UTF-8"?>
<svg width="19px" height="17px" viewBox="0 0 19 17" version="1.1" xmlns="http://www.w3.org/2000/svg" xmlns:xlink="http://www.w3.org/1999/xlink">
    <!-- Generator: Sketch 52.5 (67469) - http://www.bohemiancoding.com/sketch -->
    <title>twotone-how_to_reg-24px</title>
    <desc>Created with Sketch.</desc>
    <g id="Symbols" stroke="none" stroke-width="1" fill="none" fill-rule="evenodd">
        <g id="Artboard" transform="translate(-2203.000000, -959.000000)">
            <g id="twotone-how_to_reg-24px" transform="translate(2200.000000, 955.000000)">
                <polygon id="Path" points="0 0 24 0 24 24 0 24"></polygon>
                <circle id="Oval" fill="#5D5D78" opacity="0.3" cx="11" cy="8" r="2"></circle>
                <path d="M5,18 L9.99,18 L9,17 L9.93,16.06 C7.55,16.33 5.2,17.37 5,18 Z" id="Path" fill="#5D5D78" opacity="0.3"></path>
                <path d="M11,12 C13.21,12 15,10.21 15,8 C15,5.79 13.21,4 11,4 C8.79,4 7,5.79 7,8 C7,10.21 8.79,12 11,12 Z M11,6 C12.1,6 13,6.9 13,8 C13,9.1 12.1,10 11,10 C9.9,10 9,9.1 9,8 C9,6.9 9.9,6 11,6 Z M10,18 L5,18 C5.2,17.37 7.55,16.33 9.93,16.06 L9.96,16.06 L10.42,15.61 L12,14.06 C11.61,14.02 11.32,14 11,14 C8.33,14 3,15.34 3,18 L3,20 L12,20 L10,18 Z M20.6,12.5 L15.47,17.67 L13.4,15.59 L12,17 L15.47,20.5 L22,13.91 L20.6,12.5 Z" id="Shape" fill="#5D5D78" fill-rule="nonzero"></path>
            </g>
        </g>
    </g>
</svg>