<?xml version="1.0" encoding="UTF-8"?>
<svg width="20px" height="20px" viewBox="0 0 20 20" version="1.1" xmlns="http://www.w3.org/2000/svg" xmlns:xlink="http://www.w3.org/1999/xlink">
    <!-- Generator: Sketch 52.5 (67469) - http://www.bohemiancoding.com/sketch -->
    <title>twotone-group_work-24px (1)</title>
    <desc>Created with Sketch.</desc>
    <g id="Symbols" stroke="none" stroke-width="1" fill="none" fill-rule="evenodd">
        <g id="Artboard" transform="translate(-1752.000000, -1015.000000)">
            <g id="twotone-group_work-24px-(1)" transform="translate(1750.000000, 1013.000000)">
                <polygon id="Path" points="0 0 24 0 24 24 0 24"></polygon>
                <path d="M12,4 C7.59,4 4,7.59 4,12 C4,16.41 7.59,20 12,20 C16.41,20 20,16.41 20,12 C20,7.59 16.41,4 12,4 Z M8,16 C6.9,16 6,15.1 6,14 C6,12.9 6.9,12 8,12 C9.1,12 10,12.9 10,14 C10,15.1 9.1,16 8,16 Z M12,10 C10.9,10 10,9.1 10,8 C10,6.9 10.9,6 12,6 C13.1,6 14,6.9 14,8 C14,9.1 13.1,10 12,10 Z M16,16 C14.9,16 14,15.1 14,14 C14,12.9 14.9,12 16,12 C17.1,12 18,12.9 18,14 C18,15.1 17.1,16 16,16 Z" id="Shape" fill="#5D5D78" fill-rule="nonzero" opacity="0.3"></path>
                <path d="M12,2 C6.48,2 2,6.48 2,12 C2,17.52 6.48,22 12,22 C17.52,22 22,17.52 22,12 C22,6.48 17.52,2 12,2 Z M12,20 C7.59,20 4,16.41 4,12 C4,7.59 7.59,4 12,4 C16.41,4 20,7.59 20,12 C20,16.41 16.41,20 12,20 Z" id="Shape" fill="#5D5D78" fill-rule="nonzero"></path>
                <circle id="Oval" fill="#5D5D78" cx="8" cy="14" r="2"></circle>
                <circle id="Oval" fill="#5D5D78" cx="12" cy="8" r="2"></circle>
                <circle id="Oval" fill="#5D5D78" cx="16" cy="14" r="2"></circle>
            </g>
        </g>
    </g>
</svg>